<?xml version="1.0" encoding="UTF-8"?>
<svg id="Layer_1" xmlns="http://www.w3.org/2000/svg" version="1.1" viewBox="0 0 364.24 339.47">
  <!-- Generator: Adobe Illustrator 29.5.1, SVG Export Plug-In . SVG Version: 2.1.0 Build 141)  -->
  <defs>
    <style>
      .st0 {
        fill-rule: evenodd;
      }
    </style>
  </defs>
  <path d="M135.87,210.83c-8.08,0-14.62,6.55-14.62,14.62s6.55,14.62,14.62,14.62,14.62-6.55,14.62-14.62-6.55-14.62-14.62-14.62Z"/>
  <path d="M209,225.45c0-8.08,6.55-14.62,14.62-14.62s14.62,6.55,14.62,14.62-6.55,14.62-14.62,14.62-14.62-6.55-14.62-14.62Z"/>
  <path class="st0" d="M179.75,6.08c-16.15,0-29.25,13.1-29.25,29.25,0,10.83,5.88,20.28,14.62,25.34v33.16h-73.12c-24.23,0-43.87,19.64-43.87,43.87v146.25c0,24.23,19.64,43.87,43.87,43.87h175.5c24.23,0,43.87-19.64,43.87-43.87v-146.25c0-24.23-19.64-43.87-43.87-43.87h-73.12v-33.16c8.74-5.06,14.62-14.51,14.62-25.34,0-16.15-13.1-29.25-29.25-29.25ZM77.37,137.7c0-8.08,6.55-14.62,14.62-14.62h20.21l21.17,42.33c4.95,9.91,15.08,16.17,26.16,16.17h40.42c11.08,0,21.21-6.26,26.16-16.17l21.16-42.33h20.21c8.08,0,14.62,6.55,14.62,14.62v146.25c0,8.08-6.55,14.62-14.62,14.62H92c-8.08,0-14.62-6.55-14.62-14.62v-146.25ZM199.96,152.33l14.62-29.25h-69.67l14.62,29.25h40.42Z"/>
  <path d="M18.87,196.2c-8.08,0-14.62,6.55-14.62,14.62v29.25c0,8.08,6.55,14.62,14.62,14.62s14.62-6.55,14.62-14.62v-29.25c0-8.08-6.55-14.62-14.62-14.62Z"/>
  <path d="M325.99,210.83c0-8.08,6.55-14.62,14.62-14.62s14.62,6.55,14.62,14.62v29.25c0,8.08-6.55,14.62-14.62,14.62s-14.62-6.55-14.62-14.62v-29.25Z"/>
</svg>