<?xml version="1.0" encoding="UTF-8"?>
<svg id="Layer_1" xmlns="http://www.w3.org/2000/svg" version="1.1" viewBox="0 0 744 744">
  <!-- Generator: Adobe Illustrator 29.5.1, SVG Export Plug-In . SVG Version: 2.1.0 Build 141)  -->
  <path d="M689.42,393.48c53.57,101.69,14.56,227.56-87.14,281.13-.05.03-.1.05-.15.08l-66.85,35.22-16.44,8.65c-30.61,16.11-66.96,17.08-98.38,2.63l-261.06-111.53,24.58-72.93,155.25,29.99-80.4-152.78-129.44-245.95,63.06-33.18,129.44,246.03,31.15-16.38-57.06-108.51,63.02-33.16,57.06,108.51,31.15-16.38-44.06-83.75,63.06-33.17,44.06,83.75,31.16-16.53-30.24-57.63,63.04-33.08,30.24,57.63,84.92,161.41.02-.05ZM86.48,201.18c-36.61-36.65-36.59-96.03.06-132.65,17.55-17.53,41.33-27.4,66.13-27.44,51.86.06,93.86,42.15,93.8,94.01-.01,10.65-1.84,21.22-5.39,31.26l16.54,31.27c34.61-58.02,15.63-133.11-42.39-167.72-18.88-11.26-40.45-17.23-62.44-17.27-67.51,0-122.23,54.75-122.22,122.26,0,64.08,49.5,117.28,113.42,121.9l-16.63-31.63c-15.46-4.34-29.54-12.6-40.87-23.98h0Z"/>
</svg>