<?xml version="1.0" encoding="UTF-8"?>
<svg id="Layer_1" xmlns="http://www.w3.org/2000/svg" version="1.1" viewBox="0 0 800 800">
  <!-- Generator: Adobe Illustrator 29.5.1, SVG Export Plug-In . SVG Version: 2.1.0 Build 141)  -->
  <path d="M726.06,726.06h0s.01,0,.01,0h-.01ZM726.06,726.06h0s.01,0,.01,0h-.01ZM73.93,726.06h.01s0,0,0,0h-.01ZM73.93,726.06h.01s0,0,0,0h-.01ZM726.06,726.06h0s.01,0,.01,0h-.01ZM726.06,726.06h0s.01,0,.01,0h-.01ZM73.93,726.06h.01s0,0,0,0h-.01ZM73.93,726.06h.01s0,0,0,0h-.01Z"/>
  <path d="M331.54,331.54c-13.64,13.64-35.76,13.64-49.4,0L108.87,158.28v89.54c0,19.3-15.64,34.94-34.93,34.94s-34.94-15.64-34.94-34.94V73.94c0-.48.01-.96.03-1.45,0-.14,0-.29.02-.44.03-.48.06-.97.11-1.46.05-.56.12-1.11.2-1.66.08-.55.17-1.1.28-1.64v-.03c.11-.55.23-1.09.36-1.64.13-.53.27-1.05.43-1.58,0-.03.01-.06.02-.09.15-.49.31-.99.48-1.48.02-.06.04-.12.06-.18.18-.5.37-1,.57-1.5.17-.41.34-.82.53-1.23.05-.11.1-.22.15-.33.22-.49.46-.98.72-1.46.08-.16.16-.32.26-.48.18-.35.37-.69.58-1.03.02-.05.05-.1.08-.14.24-.41.49-.81.75-1.21.11-.17.22-.34.34-.51.22-.33.44-.65.68-.97.42-.59.86-1.16,1.33-1.72.31-.37.62-.74.95-1.11.05-.05.1-.1.14-.16.38-.41.76-.81,1.16-1.21.4-.4.8-.78,1.21-1.16.06-.04.11-.09.16-.14.37-.33.74-.64,1.11-.95.56-.47,1.13-.91,1.72-1.33.32-.24.64-.46.97-.68.17-.12.34-.23.51-.34.4-.26.8-.51,1.21-.75.04-.03.09-.06.14-.08.34-.21.68-.4,1.03-.58.16-.1.32-.18.48-.26.48-.26.97-.5,1.46-.72.11-.05.22-.1.33-.15.41-.19.82-.36,1.23-.53.5-.2,1-.39,1.5-.57.06-.02.12-.04.18-.06.49-.17.99-.33,1.48-.48.03-.01.06-.02.09-.02.53-.16,1.05-.3,1.58-.43.55-.13,1.09-.25,1.64-.36h.03c.54-.11,1.09-.2,1.64-.28.55-.08,1.1-.15,1.66-.2.49-.05.98-.08,1.46-.11.15-.01.3-.01.44-.02.49-.02.97-.03,1.45-.03h173.88c19.3,0,34.94,15.64,34.94,34.94s-15.64,34.93-34.94,34.93h-89.54l173.26,173.27c13.64,13.64,13.64,35.76,0,49.4Z"/>
  <path d="M761,73.94v173.88c0,19.3-15.64,34.94-34.94,34.94s-34.93-15.64-34.93-34.94v-89.54l-173.27,173.26c-13.64,13.64-35.76,13.64-49.4,0-13.64-13.64-13.64-35.76,0-49.4l173.26-173.27h-89.54c-19.29,0-34.94-15.64-34.94-34.93s15.65-34.94,34.94-34.94h173.88c.48,0,.96.01,1.45.03.15,0,.29,0,.44.02.48.03.97.06,1.46.11.56.05,1.11.12,1.66.2.55.08,1.1.17,1.64.28h.03c.55.11,1.09.23,1.64.36.53.13,1.05.27,1.58.43.03,0,.06.01.09.02.49.15.99.31,1.48.48.06.02.12.04.18.06.5.18,1,.37,1.5.57.41.17.82.34,1.23.53.11.05.22.1.33.15.49.22.98.46,1.46.72.16.08.33.16.48.26.35.18.69.37,1.03.58.05.02.1.05.14.08.41.24.81.49,1.21.75.17.11.34.22.51.34.33.22.65.44.97.68.59.42,1.16.86,1.72,1.33.37.31.74.62,1.11.95.05.05.1.1.16.14.41.38.81.76,1.21,1.16.4.4.78.8,1.16,1.21.04.06.09.11.14.16.33.37.64.74.95,1.11.47.56.91,1.13,1.34,1.72.23.32.45.64.67.97.12.17.23.34.34.51.26.4.51.8.75,1.21.03.04.06.09.08.14.21.34.4.68.58,1.03.1.16.18.32.26.48.26.48.5.97.72,1.46.05.11.1.22.15.33.19.41.36.82.53,1.23.2.5.39,1,.57,1.5.02.06.04.12.06.18.17.49.33.99.48,1.48.01.03.02.06.02.09.16.53.3,1.05.43,1.58.13.55.25,1.09.36,1.64v.03c.11.54.2,1.09.28,1.64.08.55.15,1.1.2,1.66.05.49.08.98.11,1.46.01.15.01.3.02.44.02.49.03.97.03,1.45Z"/>
  <path d="M726.06,517.24c-19.29,0-34.93,15.65-34.93,34.94v89.54l-173.27-173.26c-13.64-13.64-35.76-13.64-49.4,0-13.64,13.64-13.64,35.76,0,49.4l173.26,173.27h-89.54c-19.29,0-34.94,15.64-34.94,34.93s15.65,34.94,34.94,34.94h173.88c.48,0,.96-.01,1.45-.03.15,0,.29,0,.44-.02.48-.03.97-.06,1.46-.11.56-.05,1.11-.12,1.66-.2.55-.08,1.1-.17,1.64-.28h.03c.55-.11,1.09-.23,1.64-.36.53-.13,1.05-.27,1.58-.43.03,0,.06-.01.09-.02.49-.15.99-.31,1.48-.48.06-.02.12-.04.18-.06.5-.18,1-.37,1.5-.57.41-.17.82-.34,1.23-.53.11-.05.22-.1.33-.15.49-.22.98-.46,1.46-.72.16-.08.33-.16.48-.26.35-.18.69-.37,1.03-.58.05-.02.1-.05.14-.08.41-.24.81-.49,1.21-.75.17-.11.34-.22.51-.34.33-.22.65-.44.97-.67.59-.43,1.16-.87,1.72-1.34.37-.31.74-.62,1.11-.95.05-.05.1-.1.16-.14.41-.38.81-.76,1.21-1.16.4-.4.78-.8,1.16-1.21.04-.06.09-.11.14-.16.33-.37.64-.74.95-1.11.47-.56.91-1.13,1.34-1.72.23-.32.45-.64.67-.97.12-.17.23-.34.34-.51.26-.4.51-.8.75-1.21.03-.04.06-.09.08-.14.21-.34.4-.68.58-1.03.1-.15.18-.32.26-.48.26-.48.5-.97.72-1.46.05-.11.1-.22.15-.33.19-.41.36-.82.53-1.23.2-.5.39-1,.57-1.5.02-.06.04-.12.06-.18.17-.49.33-.99.48-1.48.01-.03.02-.06.02-.09.16-.53.3-1.05.43-1.58.13-.55.25-1.09.36-1.64v-.03c.11-.54.2-1.09.28-1.64.08-.55.15-1.1.2-1.66.05-.49.08-.98.11-1.46.01-.15.01-.29.02-.44.02-.49.03-.97.03-1.45v-173.88c0-19.29-15.64-34.94-34.94-34.94ZM726.06,726.07h0s.01-.01.01-.01h-.01Z"/>
  <path d="M331.54,468.46c-13.64-13.64-35.76-13.64-49.4,0l-173.27,173.26v-89.54c0-19.29-15.64-34.94-34.93-34.94s-34.94,15.65-34.94,34.94v173.88c0,.48.01.96.03,1.45,0,.15,0,.29.02.44.03.48.06.97.11,1.46.05.56.12,1.11.2,1.66.08.55.17,1.1.28,1.64v.03c.11.55.23,1.09.36,1.64.13.53.27,1.05.43,1.58,0,.03.01.06.02.09.15.49.31.99.48,1.48.02.06.04.12.06.18.18.5.37,1,.57,1.5.17.41.34.82.53,1.23.05.11.1.22.15.33.22.49.46.98.72,1.46.08.16.16.33.26.48.18.35.37.69.58,1.03.02.05.05.1.08.14.24.41.49.81.75,1.21.11.17.22.34.34.51.22.33.44.65.68.97.42.59.86,1.16,1.33,1.72.31.37.62.74.95,1.11.05.05.1.1.14.16.38.41.76.81,1.16,1.21.4.4.8.78,1.21,1.16.06.04.11.09.16.14.37.33.74.64,1.11.95.56.47,1.13.91,1.72,1.34.32.23.64.45.97.67.17.12.34.23.51.34.4.26.8.51,1.21.75.04.03.09.06.14.08.34.21.68.4,1.03.58.16.1.32.18.48.26.48.26.97.5,1.46.72.11.05.22.1.33.15.41.19.82.36,1.23.53.5.2,1,.39,1.5.57.06.02.12.04.18.06.49.17.99.33,1.48.48.03.01.06.02.09.02.53.16,1.05.3,1.58.43.55.13,1.09.25,1.64.36h.03c.54.11,1.09.2,1.64.28.55.08,1.1.15,1.66.2.49.05.98.08,1.46.11.15.01.3.01.44.02.49.02.97.03,1.45.03h173.88c19.3,0,34.94-15.64,34.94-34.94s-15.64-34.93-34.94-34.93h-89.54l173.26-173.27c13.64-13.64,13.64-35.76,0-49.4ZM73.94,726.07h-.01s.01-.01.01-.01h0Z"/>
</svg>