<?xml version="1.0" encoding="UTF-8"?>
<svg id="Layer_1" xmlns="http://www.w3.org/2000/svg" version="1.1" viewBox="0 0 488.78 488.78">
  <!-- Generator: Adobe Illustrator 29.5.1, SVG Export Plug-In . SVG Version: 2.1.0 Build 141)  -->
  <defs>
    <style>
      .st0 {
        fill: #edcb21;
      }
    </style>
  </defs>
  <path class="st0" d="M6.68,5.36v44.59l73.12,72.91c4.88-7.95,10.96-15.65,18.13-22.81,7.15-7.15,14.82-13.19,22.75-18.06L44.27,5.36H6.68ZM166.49,86.42c-.57,0-1.14.01-1.72.03-3.1.1-6.42.52-9.9,1.28-13.94,3.04-29.97,11.75-43.75,25.53-13.78,13.78-22.49,29.81-25.53,43.75-2.9,13.3-.81,23.93,5.28,30.78,5.4-20.35,17.59-41.18,35.59-59.19,18.02-18.02,38.88-30.2,59.25-35.59-4.72-4.22-11.25-6.53-19.22-6.59h0ZM206.96,108.58c-3.98.1-8.19.62-12.6,1.56-17.62,3.76-37.6,14.57-54.72,31.69-17.11,17.11-27.93,37.07-31.68,54.69s-.63,32.09,8.47,41.19c.9.91,1.89,1.74,2.9,2.53,4.63-31.49,18.51-59.08,39.44-80,20.69-20.67,47.89-34.46,78.94-39.25-.68-.84-1.39-1.64-2.16-2.4-6.83-6.83-16.67-10.29-28.59-10h0ZM262.3,137.23c-36.56.17-68.02,13.91-90.34,36.22-2.24,2.24-4.38,4.58-6.44,7,22.43,11.65,37.32,26.57,46.31,43.06,10.57,19.39,12.98,40.39,12.15,60.03l-18.69-.78c.74-17.57-1.45-34.86-9.88-50.31-7.47-13.69-19.87-26.32-41.03-36.69-18.15,29.68-24.5,68.66-12.66,111.84,36.47,3.15,72.89,24.29,86.38,66.25,45.02-6.38,119.34,26.56,127.22,64.25,39.96,18.48,84.59,33.37,125.72,45.09-11.33-35.87-24.38-81.1-40.72-116.97-34.53-21.51-49.7-62.82-46.63-106.34-40.34-30.1-70.18-69.52-74.78-112.62-19.78-6.95-38.81-10.11-56.63-10.03h0ZM252.77,182.73c10.29,52.54,58.67,86.17,100.63,93.72l-3.31,18.38c-11.09-2-22.48-5.5-33.6-10.44-6.93,19.61,1.34,41.25,19.75,60,19.64,20,50.41,34.91,81.09,35.97l-.66,18.69c-36.15-1.25-70.66-18.01-93.78-41.56-.98-1-1.94-2-2.88-3.03-15.47-12.36-27.61-16.12-38.47-15.5-10.92.62-21.6,6.01-33.03,15.06l-11.59-14.66c13.04-10.33,27.3-18.13,43.56-19.06,6.38-.36,12.9.37,19.56,2.28-5.64-15.19-6.43-31.34-.25-46.81-31.03-18.51-57.39-48.84-65.34-89.44l18.31-3.59h0Z"/>
</svg>