<?xml version="1.0" encoding="UTF-8"?>
<svg id="Layer_1" xmlns="http://www.w3.org/2000/svg" version="1.1" viewBox="0 0 800 800">
  <!-- Generator: Adobe Illustrator 29.5.1, SVG Export Plug-In . SVG Version: 2.1.0 Build 141)  -->
  <defs>
    <style>
      .st0 {
        fill-rule: evenodd;
      }
    </style>
  </defs>
  <path class="st0" d="M285.7,361.9c-21.04,0-38.1,17.06-38.1,38.1s17.06,38.1,38.1,38.1h228.59c21.04,0,38.1-17.06,38.1-38.1s-17.06-38.1-38.1-38.1h-228.59ZM285.7,476.2c-21.04,0-38.1,17.06-38.1,38.1s17.06,38.1,38.1,38.1h228.59c21.04,0,38.1-17.06,38.1-38.1s-17.06-38.1-38.1-38.1h-228.59ZM418.36,19.01c25.86-.04,48.81-.07,70.01,8.71s37.41,25.04,55.66,43.35c36.18,36.29,72.41,72.53,108.7,108.7,18.31,18.26,34.57,34.46,43.35,55.66,8.78,21.2,8.75,44.15,8.71,70.01-.14,95.85,0,191.71,0,287.57,0,33.77,0,62.87-3.13,86.18-3.36,24.97-10.93,48.92-30.35,68.33s-43.36,26.99-68.33,30.35c-23.31,3.13-52.41,3.13-86.18,3.13h-233.61c-33.77,0-62.88,0-86.18-3.13-24.97-3.36-48.91-10.93-68.33-30.35-19.42-19.42-26.99-43.36-30.35-68.33-3.13-23.3-3.13-52.4-3.13-86.18V209.51c0-.84,0-1.68,0-2.51,0-33.77,0-62.87,3.13-86.18,3.36-24.97,10.93-48.91,30.35-68.33,19.42-19.42,43.36-26.99,68.33-30.35,23.3-3.13,52.4-3.13,86.18-3.13,45.06,0,90.11.06,135.17,0Z"/>
</svg>