<?xml version="1.0" encoding="UTF-8"?>
<svg id="Layer_1" xmlns="http://www.w3.org/2000/svg" version="1.1" viewBox="0 0 726 726">
  <!-- Generator: Adobe Illustrator 29.5.1, SVG Export Plug-In . SVG Version: 2.1.0 Build 141)  -->
  <path d="M29.67,163c0-62.85,0-94.28,19.53-113.81,19.53-19.53,50.95-19.53,113.81-19.53s94.28,0,113.81,19.53c19.53,19.53,19.53,50.95,19.53,113.81v400c0,62.85,0,94.28-19.53,113.81-19.53,19.53-50.95,19.53-113.81,19.53s-94.28,0-113.81-19.53c-19.53-19.53-19.53-50.95-19.53-113.81V163Z"/>
  <path d="M429.67,163c0-62.85,0-94.28,19.53-113.81,19.53-19.53,50.95-19.53,113.81-19.53s94.28,0,113.81,19.53c19.53,19.53,19.53,50.95,19.53,113.81v400c0,62.85,0,94.28-19.53,113.81s-50.95,19.53-113.81,19.53-94.28,0-113.81-19.53-19.53-50.95-19.53-113.81V163Z"/>
</svg>