<?xml version="1.0" encoding="UTF-8"?>
<svg id="Layer_1" xmlns="http://www.w3.org/2000/svg" version="1.1" viewBox="0 0 679 679">
  <!-- Generator: Adobe Illustrator 29.5.1, SVG Export Plug-In . SVG Version: 2.1.0 Build 141)  -->
  <path d="M14.33,339.18c0-37.24,7.37-72.77,22.12-106.59,14.74-33.82,34.47-63.14,59.19-87.97,24.72-24.83,54.42-44.31,89.11-58.43,34.69-14.13,70.9-21.4,108.63-21.83,37.73,0,73.72,7.28,107.98,21.83,34.26,14.55,63.96,34.03,89.11,58.43,25.15,24.4,44.88,53.72,59.19,87.97,14.31,34.25,21.69,69.78,22.12,106.59h46.83c9.98,0,18.64,2.78,26.02,8.35,7.37,5.56,12.79,12.41,16.26,20.55,3.47,8.13,4.56,16.69,3.26,25.68-1.3,8.99-5.64,16.91-13.01,23.76l-93.01,91.82c-9.11,8.99-19.95,13.48-32.52,13.48s-23.64-4.49-33.18-13.48l-93.02-91.82c-6.94-6.85-11.06-14.77-12.36-23.76-1.3-8.99-.43-17.55,2.6-25.68,3.04-8.13,8.46-14.98,16.26-20.55,7.81-5.56,16.7-8.35,26.67-8.35h46.18c0-32.96-8.24-63.57-24.72-91.82-16.48-28.25-39.03-50.51-67.65-66.78-28.62-16.27-59.63-24.4-93.02-24.4s-64.61,8.13-93.67,24.4c-29.05,16.27-51.6,38.53-67.65,66.78-16.05,28.25-24.28,58.86-24.72,91.82-.43,32.96,7.81,63.78,24.72,92.46,16.91,28.68,39.46,50.94,67.65,66.78,28.19,15.84,59.41,23.97,93.67,24.4,23.42,0,46.18-4.28,68.3-12.84l69.6,68.07c-42.5,24.4-88.46,36.6-137.9,36.6-38.16,0-74.37-7.28-108.63-21.83-34.26-14.55-63.96-34.03-89.11-58.43-25.15-24.4-44.88-53.72-59.19-87.97-14.31-34.25-21.68-69.99-22.12-107.23Z"/>
</svg>