<?xml version="1.0" encoding="UTF-8"?>
<svg id="Layer_1" xmlns="http://www.w3.org/2000/svg" version="1.1" viewBox="0 0 364.24 339.47">
  <!-- Generator: Adobe Illustrator 29.5.1, SVG Export Plug-In . SVG Version: 2.1.0 Build 141)  -->
  <defs>
    <style>
      .st0 {
        fill-rule: evenodd;
      }
    </style>
  </defs>
  <path class="st0" d="M151.67,72.25l-11.17-31.96c-2.11-2.61-2.51-6.21-1.06-9.21,1.45-3.02,4.51-4.95,7.85-4.95h69.66c3.35,0,6.4,1.93,7.85,4.95,1.45,3,1.05,6.6-1.06,9.21l-11.17,31.96c67.11,8.77,114.04,43.24,114.04,43.24,3.04,2.22,4.28,6.16,3.12,9.73-1,3.02-3.51,5.21-6.53,5.81,14.17,11.68,22.14,20.48,22.14,20.48,2.32,2.55,2.89,6.24,1.49,9.39-1.31,2.92-4.1,4.88-7.28,5.13,9.96,12.75,15.43,21.55,15.43,21.55,1.67,2.68,1.75,6.06.21,8.83-1.52,2.76-4.44,4.47-7.61,4.47h-34.83l-1.39,91.17c0,4.83-5.98,35.22-39.84,39.46H87.33c-28.94,0-40.06-19.25-40.3-40.1l1.46-90.53h-31.83c-3.17,0-6.09-1.71-7.61-4.47-1.53-2.78-1.45-6.16.21-8.83,0,0,5.47-8.8,15.43-21.55-3.18-.24-5.98-2.2-7.28-5.13-1.4-3.15-.83-6.84,1.49-9.39,0,0,7.97-8.8,22.14-20.48-3.02-.6-5.54-2.79-6.53-5.81-1.16-3.58.08-7.51,3.12-9.73,0,0,46.93-34.47,114.04-43.24h0ZM215.67,279.26v23h46.53c10.91,0,19.89-2.82,19.89-13.73v-9.27h-66.42ZM96.75,302.27h50.82v-23l-70.66-.55v5.77c0,10.91,8.93,17.78,19.84,17.78ZM282.11,261.84v-60.96H76.91v60.96h70.66v-34.83c0-4.82,3.9-8.72,8.72-8.72h50.66c4.82,0,8.72,3.9,8.72,8.72v34.83h66.44ZM281.94,131.21c8.88,6.22,16.39,25.28,22.29,30.44-.02-.02-248.19-.02-248.19-.02,5.91-5.14,13.39-24.2,22.27-30.42h203.63Z"/>
</svg>