<?xml version="1.0" encoding="UTF-8"?>
<svg id="Layer_1" xmlns="http://www.w3.org/2000/svg" version="1.1" viewBox="0 0 364.24 339.47">
  <!-- Generator: Adobe Illustrator 29.5.1, SVG Export Plug-In . SVG Version: 2.1.0 Build 141)  -->
  <path d="M264.42,95.04h-68.01v-31.47c8.86-5,14.84-14.49,14.84-25.38,0-16.09-13.04-29.13-29.13-29.13s-29.13,13.04-29.13,29.13c0,10.76,5.83,20.14,14.5,25.19v31.66h-67.67c-27.23.03-49.29,19.75-49.32,44.1v147.17c.03,24.34,22.09,44.07,49.32,44.1h164.6c27.23-.03,49.29-19.75,49.32-44.1v-147.17c-.03-24.34-22.09-44.07-49.32-44.1ZM294.01,139.14h0v10.44h-102.03v-36.9h72.44c16.34.02,29.57,11.85,29.59,26.46ZM239.92,203.91h-115.6v-36.69h115.6v36.69ZM294.01,221.55v36.87h-102.03v-36.87h102.03ZM70.23,139.14c.02-14.61,13.26-26.44,29.59-26.46h0s72.44,0,72.44,0v36.9h-102.03v-10.44ZM70.23,167.22h34.36v36.69h-34.36v-36.69ZM172.26,221.55v36.87h-102.03v-36.87s102.03,0,102.03,0ZM104.59,312.78h-4.77c-16.34-.02-29.57-11.85-29.59-26.46v-10.26h34.36v36.73ZM239.92,312.78h-115.6v-36.73h115.6v36.73ZM294.02,286.32c-.02,14.61-13.26,26.44-29.6,26.45h0s-4.77,0-4.77,0v-36.73h34.37v10.27ZM294.02,203.91h-34.37v-36.69h34.37v36.69Z"/>
</svg>